<svg id="Raggruppa_3069" data-name="Raggruppa 3069" xmlns="http://www.w3.org/2000/svg" xmlns:xlink="http://www.w3.org/1999/xlink" width="94.386" height="94.387" viewBox="0 0 94.386 94.387">
  <defs>
    <clipPath id="clip-path">
      <rect id="Rettangolo_2222" data-name="Rettangolo 2222" width="94.386" height="94.387" fill="#280082"/>
    </clipPath>
  </defs>
  <g id="Raggruppa_3068" data-name="Raggruppa 3068" clip-path="url(#clip-path)">
    <path id="Tracciato_13543" data-name="Tracciato 13543" d="M48.668,23.672V22.359a8.26,8.26,0,0,1-2.949,0v1.313a23.492,23.492,0,0,0-15.028,6.7,8.432,8.432,0,0,1,2.448,1.74,20.641,20.641,0,0,1,12.58-5.487v5.9a12.037,12.037,0,0,1,1.475-.073,9.821,9.821,0,0,1,1.475.073v-5.9A20.647,20.647,0,0,1,65.908,38.538a8.925,8.925,0,0,1,2.949-.634,23.6,23.6,0,0,0-20.19-14.231Zm0,0V22.359a8.26,8.26,0,0,1-2.949,0v1.313a23.492,23.492,0,0,0-15.028,6.7,8.432,8.432,0,0,1,2.448,1.74,20.641,20.641,0,0,1,12.58-5.487v5.9a12.037,12.037,0,0,1,1.475-.073,9.821,9.821,0,0,1,1.475.073v-5.9A20.647,20.647,0,0,1,65.908,38.538a8.925,8.925,0,0,1,2.949-.634,23.6,23.6,0,0,0-20.19-14.231Zm0,0V22.359a8.26,8.26,0,0,1-2.949,0v1.313a23.492,23.492,0,0,0-15.028,6.7,8.432,8.432,0,0,1,2.448,1.74,20.641,20.641,0,0,1,12.58-5.487v5.9a12.037,12.037,0,0,1,1.475-.073,9.821,9.821,0,0,1,1.475.073v-5.9A20.647,20.647,0,0,1,65.908,38.538a8.925,8.925,0,0,1,2.949-.634,23.6,23.6,0,0,0-20.19-14.231ZM47.193,0a47.189,47.189,0,1,0,23.6,6.322A47.192,47.192,0,0,0,47.193,0ZM45.718,91.439A44.244,44.244,0,0,1,2.95,48.67H11.8a35.251,35.251,0,0,0,9.335,22.476l-2.2,2.183a1.481,1.481,0,0,0,2.094,2.094l2.183-2.2h0a35.2,35.2,0,0,0,22.505,9.365ZM14.748,48.67H23.6a23.452,23.452,0,0,0,5.9,14.114l-6.283,6.283a32.358,32.358,0,0,1-8.465-20.4Zm30.97,30.97a32.292,32.292,0,0,1-20.4-8.45l6.283-6.3a23.453,23.453,0,0,0,14.114,5.9Zm2.949,11.8V82.591a35.006,35.006,0,0,0,12.55-2.95,7.782,7.782,0,0,1-1.475-2.581,32.129,32.129,0,0,1-11.076,2.581V70.792a23.6,23.6,0,0,0,20.19-14.305,8.929,8.929,0,0,1-2.949-.634,20.644,20.644,0,0,1-17.241,11.99v-5.9H45.719v5.9a20.644,20.644,0,0,1-12.034-4.985l4.173-4.173a18.666,18.666,0,0,1-2.094-2.079L31.6,60.764A20.459,20.459,0,0,1,26.62,48.67h5.9c0-.487-.073-.973-.073-1.475a9.822,9.822,0,0,1,.073-1.475H31.044a8.568,8.568,0,0,1-8.1,0h-8.2a32.445,32.445,0,0,1,23.6-29.746,9.635,9.635,0,0,1-.384-2.7,1.336,1.336,0,0,1,0-.236A35.4,35.4,0,0,0,11.8,45.72H2.949A44.244,44.244,0,0,1,45.717,2.952V4.147a8.252,8.252,0,0,1,2.949,0V2.952A44.244,44.244,0,0,1,91.435,45.72H82.587A35.4,35.4,0,0,0,56.394,13.039a1.212,1.212,0,0,1,0,.236,9.62,9.62,0,0,1-.354,2.7,32.445,32.445,0,0,1,23.6,29.746H78.531a8.26,8.26,0,0,1,0,2.949h1.106a32.294,32.294,0,0,1-7.374,19.069,8.134,8.134,0,0,1,2.05,2.153,35.129,35.129,0,0,0,8.274-21.223h8.848A44.244,44.244,0,0,1,48.667,91.437Zm0-67.721V22.405a8.26,8.26,0,0,1-2.949,0v1.312a23.494,23.494,0,0,0-15.028,6.7,8.434,8.434,0,0,1,2.448,1.74,20.647,20.647,0,0,1,12.58-5.531v5.9a12.037,12.037,0,0,1,1.475-.073,9.822,9.822,0,0,1,1.475.073v-5.9A20.647,20.647,0,0,1,65.908,38.54a8.925,8.925,0,0,1,2.949-.634,23.6,23.6,0,0,0-20.19-14.231Zm0,0V22.405a8.26,8.26,0,0,1-2.949,0v1.312a23.494,23.494,0,0,0-15.028,6.7,8.434,8.434,0,0,1,2.448,1.74,20.647,20.647,0,0,1,12.58-5.531v5.9a12.037,12.037,0,0,1,1.475-.073,9.822,9.822,0,0,1,1.475.073v-5.9A20.647,20.647,0,0,1,65.908,38.54a8.925,8.925,0,0,1,2.949-.634,23.6,23.6,0,0,0-20.19-14.231Zm0,0V22.405a8.26,8.26,0,0,1-2.949,0v1.312a23.494,23.494,0,0,0-15.028,6.7,8.434,8.434,0,0,1,2.448,1.74,20.647,20.647,0,0,1,12.58-5.531v5.9a12.037,12.037,0,0,1,1.475-.073,9.822,9.822,0,0,1,1.475.073v-5.9A20.647,20.647,0,0,1,65.908,38.54a8.925,8.925,0,0,1,2.949-.634,23.6,23.6,0,0,0-20.19-14.231Zm0,0V22.405a8.26,8.26,0,0,1-2.949,0v1.312a23.494,23.494,0,0,0-15.028,6.7,8.434,8.434,0,0,1,2.448,1.74,20.647,20.647,0,0,1,12.58-5.531v5.9a12.037,12.037,0,0,1,1.475-.073,9.822,9.822,0,0,1,1.475.073v-5.9A20.647,20.647,0,0,1,65.908,38.54a8.925,8.925,0,0,1,2.949-.634,23.6,23.6,0,0,0-20.19-14.231Z" fill="#280082"/>
    <path id="Tracciato_13544" data-name="Tracciato 13544" d="M364.277,234.4a6.356,6.356,0,1,1-6.356-6.356,6.356,6.356,0,0,1,6.356,6.356" transform="translate(-288.605 -187.207)" fill="#ffa100"/>
    <path id="Tracciato_13545" data-name="Tracciato 13545" d="M130.627,186.875a5.663,5.663,0,1,1-1.643-4.018,5.65,5.65,0,0,1,1.643,4.018Z" transform="translate(-97.96 -148.736)" fill="#ffa100"/>
    <path id="Tracciato_13546" data-name="Tracciato 13546" d="M357.87,391.249a5.251,5.251,0,1,1-1.538-3.712,5.25,5.25,0,0,1,1.538,3.712" transform="translate(-285.163 -316.873)" fill="#ffa100"/>
    <path id="Tracciato_13547" data-name="Tracciato 13547" d="M228.452,45.258a6.283,6.283,0,1,1,1.846,4.433,6.282,6.282,0,0,1-1.846-4.433Z" transform="translate(-187.54 -31.983)" fill="#ffa100"/>
    <path id="Tracciato_13548" data-name="Tracciato 13548" d="M221.243,209.453a11.8,11.8,0,1,1-11.8-11.8,11.8,11.8,0,0,1,11.8,11.8" transform="translate(-162.251 -162.259)" fill="#280082"/>
  </g>
</svg>
