<svg id="Raggruppa_3073" data-name="Raggruppa 3073" xmlns="http://www.w3.org/2000/svg" xmlns:xlink="http://www.w3.org/1999/xlink" width="95.271" height="95.372" viewBox="0 0 95.271 95.372">
  <defs>
    <clipPath id="clip-path">
      <rect id="Rettangolo_2224" data-name="Rettangolo 2224" width="95.271" height="95.372" fill="#ffa100"/>
    </clipPath>
  </defs>
  <g id="Raggruppa_3072" data-name="Raggruppa 3072" clip-path="url(#clip-path)">
    <path id="Tracciato_13558" data-name="Tracciato 13558" d="M260.711,397.021v21.762a1.65,1.65,0,0,1-1.6,1.6,1.565,1.565,0,0,1-1.5-1.6V396.921l1.5-1Z" transform="translate(-211.47 -325.016)" fill="#ffa100"/>
    <path id="Tracciato_13559" data-name="Tracciato 13559" d="M167.105,434.56,161.69,447.6a1.509,1.509,0,0,1-1.4,1,1.273,1.273,0,0,1-.6-.1,1.544,1.544,0,0,1-.8-2.106l3.811-9.226a6.541,6.541,0,0,0,1.7-.8Z" transform="translate(-130.3 -356.738)" fill="#280082"/>
    <path id="Tracciato_13560" data-name="Tracciato 13560" d="M85.1,388.449a8.246,8.246,0,0,0-.2,2.708l-6.92,6.92a1.719,1.719,0,0,1-2.206,0,1.574,1.574,0,0,1,0-2.206L85.8,385.842Z" transform="translate(-61.831 -316.745)" fill="#ffa100"/>
    <path id="Tracciato_13561" data-name="Tracciato 13561" d="M43.466,308.078l-.5,1.8L21.8,318.608a1.273,1.273,0,0,1-.6.1,1.755,1.755,0,0,1-1.5-1,1.6,1.6,0,0,1,.8-2.006l21.461-8.825Z" transform="translate(-16.088 -251.919)" fill="#280082"/>
    <path id="Tracciato_13562" data-name="Tracciato 13562" d="M18.854,260.247H1.6a1.6,1.6,0,0,1,0-3.21H15.144Z" transform="translate(0 -211.007)" fill="#280082"/>
    <path id="Tracciato_13563" data-name="Tracciato 13563" d="M34.038,163.991A6.6,6.6,0,0,0,30.629,166L20.8,161.986a1.544,1.544,0,0,1-.8-2.106,1.479,1.479,0,0,1,2.006-.8Z" transform="translate(-16.288 -130.496)" fill="#280082"/>
    <path id="Tracciato_13564" data-name="Tracciato 13564" d="M96.432,94.225l-4.212.2L75.773,77.979a1.56,1.56,0,0,1,2.206-2.206Z" transform="translate(-61.833 -61.833)" fill="#ffa100"/>
    <path id="Tracciato_13565" data-name="Tracciato 13565" d="M169.406,39.05l-1.6,4.212L159.076,22.2a1.527,1.527,0,1,1,2.808-1.2Z" transform="translate(-130.495 -16.486)" fill="#280082"/>
    <path id="Tracciato_13566" data-name="Tracciato 13566" d="M260.711,1.6V13.137a7.761,7.761,0,0,0-1.5-.2,8.747,8.747,0,0,0-1.6.2V1.6a1.565,1.565,0,0,1,1.5-1.6,1.585,1.585,0,0,1,1.6,1.6" transform="translate(-211.47)" fill="#ffa100"/>
    <path id="Tracciato_13567" data-name="Tracciato 13567" d="M325.05,22l-8.725,21.06-1.6-4.213L322.242,20.8a1.438,1.438,0,0,1,2.006-.8A1.384,1.384,0,0,1,325.05,22Z" transform="translate(-258.36 -16.288)" fill="#280082"/>
    <path id="Tracciato_13568" data-name="Tracciato 13568" d="M359,78.435,342.455,94.982l-4.212-.2L356.7,76.329a1.574,1.574,0,0,1,2.206,0,1.379,1.379,0,0,1,.1,2.106Z" transform="translate(-277.67 -62.289)" fill="#ffa100"/>
    <path id="Tracciato_13569" data-name="Tracciato 13569" d="M445.658,161.985,435.83,166.1a6.5,6.5,0,0,0-3.51-2.006l12.135-5.014a1.663,1.663,0,0,1,2.106.8A1.713,1.713,0,0,1,445.658,161.985Z" transform="translate(-354.9 -130.496)" fill="#280082"/>
    <path id="Tracciato_13570" data-name="Tracciato 13570" d="M445.574,259.062a1.65,1.65,0,0,1-1.6,1.6H426.72l3.811-3.109h13.438A1.448,1.448,0,0,1,445.574,259.062Z" transform="translate(-350.302 -211.426)" fill="#ffa100"/>
    <path id="Tracciato_13571" data-name="Tracciato 13571" d="M402.892,318.271a1.643,1.643,0,0,1-1.5,1,1.274,1.274,0,0,1-.6-.1l-21.261-8.825-.4-1.6,1.5-1.3,21.361,8.725a1.712,1.712,0,0,1,.9,2.106Z" transform="translate(-311.231 -252.383)" fill="#280082"/>
    <path id="Tracciato_13572" data-name="Tracciato 13572" d="M407.728,397.616a1.719,1.719,0,0,1-2.206,0l-7.02-7.02a7.086,7.086,0,0,0-.2-2.507l-.7-2.808,10.129,10.129A1.573,1.573,0,0,1,407.728,397.616Z" transform="translate(-326.396 -316.284)" fill="#ffa100"/>
    <path id="Tracciato_13573" data-name="Tracciato 13573" d="M334.359,448.857c-.2,0-.4.1-.6.1a1.508,1.508,0,0,1-1.4-1l-5.315-12.837,2.607,1.7a5.857,5.857,0,0,0,1.8.8l3.811,9.126A1.712,1.712,0,0,1,334.359,448.857Z" transform="translate(-268.472 -357.196)" fill="#280082"/>
    <path id="Tracciato_13574" data-name="Tracciato 13574" d="M141.442,133.427,154.78,122.5a2.65,2.65,0,0,0-1.5-4.713l-17.149-1a2.733,2.733,0,0,1-2.306-1.7L127.5,99.029a2.682,2.682,0,0,0-5.014,0l-6.318,15.945a2.732,2.732,0,0,1-2.306,1.7l-17.249,1a2.65,2.65,0,0,0-1.5,4.713l13.238,10.931a2.79,2.79,0,0,1,.9,2.708l-4.312,16.648a2.672,2.672,0,0,0,4.011,2.908l14.441-9.226a2.568,2.568,0,0,1,2.908,0l14.541,9.326a2.672,2.672,0,0,0,4.011-2.908l-4.312-16.648a2.535,2.535,0,0,1,.9-2.707Z" transform="translate(-77.259 -79.874)" fill="#280082"/>
  </g>
</svg>
