<svg id="Raggruppa_3075" data-name="Raggruppa 3075" xmlns="http://www.w3.org/2000/svg" xmlns:xlink="http://www.w3.org/1999/xlink" width="95.408" height="89.146" viewBox="0 0 95.408 89.146">
  <defs>
    <clipPath id="clip-path">
      <rect id="Rettangolo_2223" data-name="Rettangolo 2223" width="95.408" height="89.146" fill="#280082"/>
    </clipPath>
  </defs>
  <g id="Raggruppa_3070" data-name="Raggruppa 3070" clip-path="url(#clip-path)">
    <path id="Tracciato_13549" data-name="Tracciato 13549" d="M34.807,133.295a16.963,16.963,0,0,0-8.424,12.636l-.9,7.321q-3.309.3-6.619.3a82.459,82.459,0,0,1-16.748-1.7,2.856,2.856,0,0,1-2.106-3.009l1.3-10.63a13.173,13.173,0,0,1,8.023-10.53,14.979,14.979,0,0,0,9.427,3.309,15.368,15.368,0,0,0,9.427-3.309A12.674,12.674,0,0,1,34.807,133.295Z" transform="translate(0 -104.813)" fill="#280082"/>
    <path id="Tracciato_13550" data-name="Tracciato 13550" d="M54.4,0A11.232,11.232,0,1,0,65.628,11.232,11.343,11.343,0,0,0,54.4,0" transform="translate(-35.434)" fill="#280082"/>
    <path id="Tracciato_13551" data-name="Tracciato 13551" d="M371.895,151.852a80.744,80.744,0,0,1-16.648,1.7c-2.206,0-4.513-.1-6.619-.3l-.9-7.321A17.028,17.028,0,0,0,339.4,133.3a13.017,13.017,0,0,1,6.418-5.616,14.978,14.978,0,0,0,9.427,3.309,15.15,15.15,0,0,0,9.427-3.309,12.806,12.806,0,0,1,8.023,10.53l1.3,10.63a2.674,2.674,0,0,1-2.106,3.008Z" transform="translate(-278.621 -104.818)" fill="#280082"/>
    <path id="Tracciato_13552" data-name="Tracciato 13552" d="M376.4,0a11.232,11.232,0,1,0,11.232,11.232A11.343,11.343,0,0,0,376.4,0Z" transform="translate(-299.77)" fill="#280082"/>
    <path id="Tracciato_13553" data-name="Tracciato 13553" d="M196.888,197.209a83.113,83.113,0,0,1-33.5,0,2.856,2.856,0,0,1-2.106-3.009l1.3-10.63a13.173,13.173,0,0,1,8.023-10.53,14.979,14.979,0,0,0,9.427,3.309,15.37,15.37,0,0,0,9.427-3.309,12.807,12.807,0,0,1,8.023,10.53l1.3,10.63a2.538,2.538,0,0,1-1.906,3.009Z" transform="translate(-132.397 -142.052)" fill="#ffa100"/>
    <path id="Tracciato_13554" data-name="Tracciato 13554" d="M215.116,45.922a11.232,11.232,0,1,0,11.232,11.232,11.213,11.213,0,0,0-11.232-11.232" transform="translate(-167.372 -37.698)" fill="#ffa100"/>
    <path id="Tracciato_13555" data-name="Tracciato 13555" d="M33.343,320.6l-1.906,8.123a1.291,1.291,0,0,0,1.906,1.4l7.121-4.312,7.121,4.312a1.286,1.286,0,0,0,1.906-1.4L47.484,320.6l6.318-5.415a1.269,1.269,0,0,0-.7-2.206l-8.324-.7-3.209-7.722a1.26,1.26,0,0,0-2.306,0l-3.209,7.722-8.323.7a1.246,1.246,0,0,0-.7,2.206Z" transform="translate(-21.803 -249.394)" fill="#280082"/>
    <path id="Tracciato_13556" data-name="Tracciato 13556" d="M358.7,320.6,356.8,328.72a1.291,1.291,0,0,0,1.906,1.4l7.121-4.312,7.121,4.312a1.286,1.286,0,0,0,1.906-1.4l-1.906-8.123,6.318-5.415a1.269,1.269,0,0,0-.7-2.206l-8.324-.7-3.209-7.722a1.26,1.26,0,0,0-2.306,0l-3.21,7.722-8.424.7a1.246,1.246,0,0,0-.7,2.206Z" transform="translate(-288.897 -249.394)" fill="#280082"/>
    <path id="Tracciato_13557" data-name="Tracciato 13557" d="M196.205,366.517l-1.9,8.123a1.291,1.291,0,0,0,1.906,1.4l7.121-4.312,7.121,4.312a1.286,1.286,0,0,0,1.906-1.4l-1.906-8.123,6.318-5.415a1.269,1.269,0,0,0-.7-2.206l-8.324-.7-3.21-7.722a1.26,1.26,0,0,0-2.306,0l-3.21,7.722-8.324.7a1.246,1.246,0,0,0-.7,2.206Z" transform="translate(-155.582 -287.09)" fill="#ffa100"/>
  </g>
</svg>
