<svg xmlns="http://www.w3.org/2000/svg" xmlns:xlink="http://www.w3.org/1999/xlink" width="168" height="168" viewBox="0 0 168 168">
  <defs>
    <filter id="icon-benefit" x="0" y="0" width="168" height="168" filterUnits="userSpaceOnUse">
      <feOffset dy="3" input="SourceAlpha"/>
      <feGaussianBlur stdDeviation="3" result="blur"/>
      <feFlood flood-opacity="0.039"/>
      <feComposite operator="in" in2="blur"/>
      <feComposite in="SourceGraphic"/>
    </filter>
  </defs>
  <g id="icon_team" data-name="icon team" transform="translate(-255 -1045)">
    <g id="icon" transform="translate(-1036 -18)">
      <g transform="matrix(1, 0, 0, 1, 1291, 1063)" filter="url(#icon-benefit)">
        <g id="icon-benefit-2" data-name="icon-benefit" transform="translate(9 6)" fill="#fff" stroke="#280082" stroke-width="2">
          <circle cx="75" cy="75" r="75" stroke="none"/>
          <circle cx="75" cy="75" r="74" fill="none"/>
        </g>
      </g>
    </g>
    <g id="Raggruppa_3076" data-name="Raggruppa 3076" transform="translate(-5674.659 2421.341)">
      <path id="Tracciato_13576" data-name="Tracciato 13576" d="M278.657,84.673a5.924,5.924,0,1,1,11.847,0v2.962a5.924,5.924,0,1,1-11.847,0Zm5.924,11.847A8.854,8.854,0,0,0,287.543,96v1.591a3.266,3.266,0,0,1-5.924,0V96A8.854,8.854,0,0,0,284.581,96.52Zm-5.078,3.2a6.1,6.1,0,0,0,10.156,0l6.1,1.743a2.974,2.974,0,0,1,2.147,2.848V121.7a1.481,1.481,0,0,1-2.962,0V106.887h-2.962v11.847H277.177V106.887h-2.962V121.7a1.481,1.481,0,0,1-2.962,0V104.314a2.976,2.976,0,0,1,2.147-2.848Zm.5,50.109-2.68-28.138H283.1v28.138Zm6.059-28.138h5.777l-2.68,28.138h-3.1Z" transform="translate(5727.909 -1409.902)" fill="#ffa100"/>
      <path id="Tracciato_13575" data-name="Tracciato 13575" d="M156.885,72.522l1.326-13.915a4.38,4.38,0,0,0,1.992.493,4.448,4.448,0,0,0,4.443-4.443V37.276a5.948,5.948,0,0,0-4.3-5.7l-6.07-1.734V27.2a8.855,8.855,0,0,0,2.962-6.6V17.635a8.886,8.886,0,1,0-17.771,0V20.6a8.859,8.859,0,0,0,2.962,6.6v2.645l-6.07,1.734a5.947,5.947,0,0,0-4.3,5.7v1.88l-1.481-.424V36.086a8.855,8.855,0,0,0,2.962-6.6V26.52a8.886,8.886,0,0,0-17.771,0v2.962a8.859,8.859,0,0,0,2.962,6.6v2.645l-1.481.424v-1.88a5.948,5.948,0,0,0-4.3-5.7l-6.07-1.734V27.2a8.855,8.855,0,0,0,2.962-6.6V17.635a8.886,8.886,0,0,0-17.771,0V20.6a8.859,8.859,0,0,0,2.962,6.6v2.645l-6.07,1.734a5.947,5.947,0,0,0-4.3,5.7V54.658A4.448,4.448,0,0,0,89.118,59.1a4.381,4.381,0,0,0,1.992-.493l1.326,13.915c-8.829,3.009-13.684,7.159-13.684,11.754,0,7.9,16.09,16.29,45.909,16.29s45.909-8.392,45.909-16.29C170.569,79.681,165.715,75.532,156.885,72.522ZM143.778,82.8,141.1,54.658h5.777V82.8Zm6.059-28.138h5.777L152.933,82.8h-3.1Zm-7.4-37.023a5.924,5.924,0,1,1,11.847,0V20.6a5.924,5.924,0,1,1-11.847,0Zm5.924,11.847a8.854,8.854,0,0,0,2.962-.518v1.591a3.267,3.267,0,0,1-5.924,0V28.964a8.854,8.854,0,0,0,2.962.518Zm-13.328,7.794a2.976,2.976,0,0,1,2.147-2.848l6.1-1.743a6.1,6.1,0,0,0,10.158,0l6.1,1.743a2.974,2.974,0,0,1,2.147,2.848V54.658a1.481,1.481,0,0,1-2.962,0V39.849h-2.962V51.7H140.951V39.849h-2.962v1.207a5.842,5.842,0,0,0-1.334-.59L135.028,40ZM118.737,26.52a5.924,5.924,0,1,1,11.847,0v2.962a5.924,5.924,0,1,1-11.847,0Zm5.924,11.847a8.854,8.854,0,0,0,2.962-.518V39.44a3.266,3.266,0,0,1-5.924,0V37.849A8.854,8.854,0,0,0,124.661,38.368Zm-5.078,3.2a6.1,6.1,0,0,0,10.156,0l6.1,1.743a2.974,2.974,0,0,1,2.147,2.848V63.543a1.481,1.481,0,0,1-2.962,0V48.734h-2.962V60.582H117.256V48.734h-2.962V63.543a1.481,1.481,0,0,1-2.962,0V46.162a2.976,2.976,0,0,1,2.147-2.848Zm.5,50.109L117.4,63.543h5.777V91.68Zm6.059-28.138h5.777l-2.68,28.138h-3.1ZM96.388,82.795l-2.68-28.138h5.777V82.795Zm6.059-28.138h5.777l-2.68,28.138h-3.1Zm-7.4-37.023a5.924,5.924,0,0,1,11.847,0V20.6a5.924,5.924,0,1,1-11.847,0Zm5.924,11.847a8.854,8.854,0,0,0,2.962-.518v1.591a3.266,3.266,0,0,1-5.924,0V28.963A8.854,8.854,0,0,0,100.965,29.481ZM89.118,56.138a1.483,1.483,0,0,1-1.481-1.481V37.275a2.976,2.976,0,0,1,2.147-2.848l6.1-1.743a6.1,6.1,0,0,0,10.158,0l6.1,1.743a2.974,2.974,0,0,1,2.147,2.848V40l-1.628.465a5.772,5.772,0,0,0-1.334.59V39.848h-2.962V51.7H93.561V39.848H90.6V54.657a1.483,1.483,0,0,1-1.481,1.481ZM124.66,97.6c-25.309,0-42.947-7.024-42.947-13.328,0-3.046,4.083-6.251,11.01-8.721l.972,10.2h14.539l1.789-18.783a4.315,4.315,0,0,0,4.781.52l2.586,27.149H131.93l2.586-27.149a4.315,4.315,0,0,0,4.781-.52l1.789,18.783h14.539l.971-10.2c6.928,2.47,11.011,5.674,11.011,8.721,0,6.3-17.637,13.328-42.947,13.328Z" transform="translate(5887.829 -1351.749)" fill="#221abc"/>
    </g>
  </g>
</svg>
