<svg id="Raggruppa_1198" data-name="Raggruppa 1198" xmlns="http://www.w3.org/2000/svg" width="109.643" height="31.867" viewBox="0 0 109.643 31.867">
  <g id="Raggruppa_1197" data-name="Raggruppa 1197" transform="translate(38.334 7.331)">
    <path id="Tracciato_854" data-name="Tracciato 854" d="M246,68.84V56.8h3.975V68.97c0,.782.375,1.026.652,1.026a1.406,1.406,0,0,0,.424-.049l.456,2.916a5.024,5.024,0,0,1-1.939.326C246.88,73.189,246,71.43,246,68.84Z" transform="translate(-246 -56.8)" fill="#fff"/>
    <path id="Tracciato_855" data-name="Tracciato 855" d="M284.8,91.469c0-2.411,1.857-3.747,6.289-4.22-.1-.831-.6-1.206-1.613-1.206a6.3,6.3,0,0,0-2.916.978l-1.385-2.59a9.706,9.706,0,0,1,5.1-1.531c3.014,0,4.822,1.613,4.822,5.409v6.435h-3.258l-.277-1.108h-.1a4.694,4.694,0,0,1-3.193,1.385A3.382,3.382,0,0,1,284.8,91.469Zm6.3-.277v-1.58c-1.906.277-2.493.88-2.493,1.531,0,.538.375.831,1.059.831A1.775,1.775,0,0,0,291.1,91.192Z" transform="translate(-278.479 -78.648)" fill="#fff"/>
    <path id="Tracciato_856" data-name="Tracciato 856" d="M366.619,71.658h-.1l-.326,1.254h-3.1V56.8h3.975v3.747l-.081,1.678a4.3,4.3,0,0,1,2.851-1.157c2.737,0,4.513,2.313,4.513,5.849,0,4.008-2.362,6.272-4.822,6.272A3.89,3.89,0,0,1,366.619,71.658Zm3.666-4.676c0-1.906-.554-2.688-1.613-2.688a1.954,1.954,0,0,0-1.58.831v4.252a2.09,2.09,0,0,0,1.483.554C369.486,69.947,370.285,69.214,370.285,66.982Z" transform="translate(-344.022 -56.8)" fill="#fff"/>
    <path id="Tracciato_857" data-name="Tracciato 857" d="M458.5,63.4h3.975V69h.1l3.8-5.6h4.35l-4.5,6.109,5.376,8.928h-4.35l-3.34-5.784-1.434,2.036v3.747H458.5Z" transform="translate(-423.88 -62.325)" fill="#fff"/>
    <path id="Tracciato_858" data-name="Tracciato 858" d="M546.1,77.086h3.144V69.494h-2.77v-2.46A10.357,10.357,0,0,0,550.32,65.6h2.916V77.086h2.639v3.193H546.1Z" transform="translate(-497.209 -64.166)" fill="#8cffff"/>
    <path id="Tracciato_859" data-name="Tracciato 859" d="M617.412,77.276l2.085-2.362a3.339,3.339,0,0,0,2.216,1.026c1.58,0,2.737-1.157,2.737-4.676,0-3.649-1.14-4.4-2.036-4.4-.831,0-1.58.489-1.58,2.036,0,1.417.782,1.76,1.613,1.76a2.183,2.183,0,0,0,1.939-1.385l.179,2.493a3.916,3.916,0,0,1-2.916,1.662c-2.493,0-4.448-1.385-4.448-4.529a4.839,4.839,0,0,1,5.1-5c2.818,0,5.735,2.036,5.735,7.364s-2.916,7.869-6.061,7.869A6.3,6.3,0,0,1,617.412,77.276Z" transform="translate(-556.725 -62.743)" fill="#8cffff"/>
  </g>
  <path id="Tracciato_860" data-name="Tracciato 860" d="M20,100.421H17.738A7.05,7.05,0,0,1,10.7,93.383V79.6h5.213V93.383a1.822,1.822,0,0,0,1.825,1.825H20Z" transform="translate(-10.7 -68.554)" fill="#fff"/>
  <path id="Tracciato_861" data-name="Tracciato 861" d="M41.129,42.754H28.177V39.366H41.129a2.733,2.733,0,0,0,2.737-2.737v-18.7a2.733,2.733,0,0,0-2.737-2.737h-18.7a2.733,2.733,0,0,0-2.737,2.737v1.4H16.3v-1.4A6.139,6.139,0,0,1,22.426,11.8h18.7a6.139,6.139,0,0,1,6.126,6.126v18.7A6.139,6.139,0,0,1,41.129,42.754Z" transform="translate(-15.388 -11.8)" fill="#8cffff"/>
  <path id="Tracciato_862" data-name="Tracciato 862" d="M90.972,81.114l-5.409-7.282L90.141,68.7h-3.4l-3.877,4.464V68.7H79.6V81.114h3.258V76.862l.6-.668,3.552,4.92Z" transform="translate(-68.375 -59.43)" fill="#fff"/>
</svg>
