<svg xmlns="http://www.w3.org/2000/svg" width="250" height="39.598" viewBox="0 0 250 39.598">
  <g id="logo_offsporter-horizontal-nega" transform="translate(-22 -31.7)">
    <g id="Raggruppa_1695" data-name="Raggruppa 1695" transform="translate(64.069 39.991)">
      <path id="Tracciato_7981" data-name="Tracciato 7981" d="M321.252,88.4c6.7,0,11.581,4.782,11.581,11.449S327.949,111.3,321.252,111.3a11.45,11.45,0,1,1,0-22.9Zm0,4.182c-4.08,0-6.7,3.115-6.7,7.267,0,4.109,2.617,7.267,6.7,7.267s6.741-3.158,6.741-7.267C327.993,95.7,325.331,92.582,321.252,92.582Z" transform="translate(-309.7 -88.4)" fill="#e1e3e7"/>
      <path id="Tracciato_7982" data-name="Tracciato 7982" d="M490.6,113.038V90.9h15.661v4.05H495.308v4.811h10.718v4.05H495.308v9.227Z" transform="translate(-464.148 -90.534)" fill="#e1e3e7"/>
      <path id="Tracciato_7983" data-name="Tracciato 7983" d="M620.2,113.038V90.9h15.661v4.05H624.908v4.811h10.718v4.05H624.908v9.227Z" transform="translate(-574.797 -90.534)" fill="#e1e3e7"/>
      <path id="Tracciato_7984" data-name="Tracciato 7984" d="M741.974,104.363a9.713,9.713,0,0,0,7.033,2.983c2.588,0,3.846-1.228,3.846-2.486,0-1.652-1.93-2.223-4.474-2.822-3.612-.833-8.262-1.828-8.262-6.77,0-3.685,3.188-6.668,8.393-6.668a12.333,12.333,0,0,1,8.627,3.085l-2.617,3.451a9.492,9.492,0,0,0-6.332-2.427c-2.12,0-3.246.936-3.246,2.252,0,1.491,1.857,1.959,4.416,2.559,3.656.833,8.291,1.93,8.291,6.829,0,4.05-2.881,7.107-8.861,7.107a12.758,12.758,0,0,1-9.388-3.524Z" transform="translate(-676.567 -88.571)" fill="#e1e3e7"/>
      <path id="Tracciato_7985" data-name="Tracciato 7985" d="M885.9,113.038V90.9h10.353c4.811,0,7.428,3.246,7.428,7.136,0,3.846-2.661,7.063-7.428,7.063h-5.644v7.925H885.9Zm9.724-18.088h-5.016v6.112h5.016a3.062,3.062,0,1,0,0-6.112Z" transform="translate(-801.646 -90.534)" fill="#e1e3e7"/>
      <path id="Tracciato_7986" data-name="Tracciato 7986" d="M1031.752,88.4c6.7,0,11.581,4.782,11.581,11.449s-4.884,11.449-11.581,11.449a11.45,11.45,0,1,1,0-22.9Zm0,4.182c-4.08,0-6.7,3.115-6.7,7.267,0,4.109,2.618,7.267,6.7,7.267s6.741-3.158,6.741-7.267C1038.493,95.7,1035.832,92.582,1031.752,92.582Z" transform="translate(-916.308 -88.4)" fill="#e1e3e7"/>
      <path id="Tracciato_7987" data-name="Tracciato 7987" d="M1213.7,113.038l-4.343-7.94h-3.451v7.925H1201.2V90.9h10.353c4.606,0,7.428,3.027,7.428,7.136a6.338,6.338,0,0,1-4.84,6.565l4.971,8.423h-5.41Zm-2.852-18.088h-4.942v6.112h4.942a3.067,3.067,0,1,0,0-6.112Z" transform="translate(-1070.841 -90.534)" fill="#e1e3e7"/>
      <path id="Tracciato_7988" data-name="Tracciato 7988" d="M1341.878,113.038V95.053H1335.4V90.9h17.649v4.153h-6.434v17.986Z" transform="translate(-1185.417 -90.534)" fill="#e1e3e7"/>
      <path id="Tracciato_7989" data-name="Tracciato 7989" d="M1476.9,113.038V90.9h15.66v4.05h-10.952v4.811h10.719v4.05h-10.719v5.147h10.952v4.08Z" transform="translate(-1306.227 -90.534)" fill="#e1e3e7"/>
      <path id="Tracciato_7990" data-name="Tracciato 7990" d="M1621.7,113.038l-4.343-7.94h-3.451v7.925H1609.2V90.9h10.353c4.606,0,7.428,3.027,7.428,7.136a6.338,6.338,0,0,1-4.84,6.565l4.971,8.423h-5.41Zm-2.852-18.088h-4.942v6.112h4.942a3.067,3.067,0,1,0,0-6.112Z" transform="translate(-1419.181 -90.534)" fill="#e1e3e7"/>
    </g>
    <path id="Tracciato_7991" data-name="Tracciato 7991" d="M55.011,57.523,59.5,53.034A8.533,8.533,0,1,1,71.534,41l4.489-4.489A14.871,14.871,0,1,0,55.011,57.523Z" transform="translate(-24.076)" fill="#e1e3e7"/>
    <path id="Tracciato_7992" data-name="Tracciato 7992" d="M43,125.9l-4.489,4.489a8.535,8.535,0,1,1-12.034,12.034L22,146.9a14.862,14.862,0,1,0,21-21Z" transform="translate(0 -80.426)" fill="#e1e3e7"/>
  </g>
</svg>
